<svg width="60" height="60" viewBox="0 0 60 60" fill="none" xmlns="http://www.w3.org/2000/svg">
    <g clip-path="url(#clip0_106280_2350)">
        <path d="M9.37333 11.1467V48.9467C4.8 43.9067 2 37.2801 2 30.0001C2 22.7201 4.8 16.0934 9.37333 11.1467Z" fill="white"/>
        <path d="M12.3601 15.2534L28.5068 47.6401H12.3601V15.2534Z" fill="white"/>
        <path d="M30 44.0001L14.1333 12.3601H45.8666L30 44.0001Z" fill="white"/>
        <path d="M30.0001 2C37.2801 2 43.9067 4.8 48.8534 9.37333H11.1467C16.0934 4.8 22.7201 2 30.0001 2Z" fill="white"/>
        <path d="M47.6401 47.6401H31.4934L47.6401 15.2534V47.6401Z" fill="white"/>
        <path d="M48.8534 50.6267C43.9067 55.2 37.2801 58 30.0001 58C22.7201 58 16.0934 55.2 11.1467 50.6267H48.8534Z" fill="white"/>
        <path d="M50.6267 48.8534V11.1467C55.2 16.0934 58 22.7201 58 30.0001C58 37.2801 55.2 43.9067 50.6267 48.8534Z" fill="white"/>
        <path d="M12.3601 15.2534L28.5068 47.6401H12.3601V15.2534Z" fill="white"/>
        <path d="M30.0002 44.0001L14.1335 12.3601H45.8669L30.0002 44.0001Z" fill="white"/>
        <path d="M31.4934 47.6401L47.6401 15.2534V47.6401H31.4934Z" fill="white"/>
        <path d="M14.1333 12.3601H45.8666L30 44.0001L14.1333 12.3601Z" fill="white"/>
    </g>
    <defs>
        <clipPath id="clip0_106280_2350">
            <rect width="56" height="56" fill="white" transform="translate(2 2)"/>
        </clipPath>
    </defs>
</svg>
