<svg width="32" height="29" viewBox="0 0 32 29" fill="none" xmlns="http://www.w3.org/2000/svg">
    <path d="M15.993 17.1111C17.5676 17.1111 18.844 15.8341 18.844 14.2589C18.844 12.6837 17.5676 11.4067 15.993 11.4067C14.4185 11.4067 13.1421 12.6837 13.1421 14.2589C13.1421 15.8341 14.4185 17.1111 15.993 17.1111Z" fill="#61DAFB"/>
    <path d="M31.9861 14.2588C31.9861 12.0188 29.3577 10.071 25.269 8.90232C26.2981 4.77015 25.9365 1.5145 23.9896 0.401452C22.0426 -0.725504 19.0526 0.596235 15.993 3.5458C12.9335 0.582322 9.9435 -0.725504 7.99652 0.401452C6.38331 1.33363 5.78531 3.69884 6.32768 7.0658C6.42503 7.66406 6.5641 8.27623 6.71708 8.91623C2.62842 10.0849 0 12.0328 0 14.2728C0 16.5128 2.62842 18.4467 6.71708 19.6293C6.5641 20.2554 6.42503 20.8815 6.32768 21.4797C5.78531 24.8467 6.38331 27.2119 7.99652 28.1441C8.46936 28.4223 9.01173 28.5615 9.60973 28.5615C11.0282 28.5615 12.7388 27.7823 14.6023 26.2658C15.0613 25.8901 15.5341 25.4588 15.993 25.0136C16.452 25.4588 16.9248 25.8901 17.3837 26.2658C19.2473 27.7823 20.9578 28.5615 22.3764 28.5615C22.9744 28.5615 23.5167 28.4223 23.9896 28.1441C25.6028 27.2119 26.2008 24.8467 25.6723 21.4797C25.575 20.8815 25.4359 20.2693 25.2829 19.6293C29.3716 18.4606 32 16.5128 32 14.2728L31.9861 14.2588ZM23.2942 1.59797C24.5458 2.32145 24.824 4.96493 23.92 8.5545C22.6128 8.24841 21.1804 8.0258 19.6645 7.88667C18.7884 6.64841 17.8705 5.52145 16.9665 4.53363C19.0804 2.48841 21.0413 1.37537 22.3903 1.37537C22.7379 1.37537 23.0439 1.44493 23.3081 1.59797H23.2942ZM20.4572 16.8328C19.9565 17.6815 19.442 18.5162 18.9135 19.2954C17.9817 19.3649 17.0083 19.4067 16.007 19.4067C15.0056 19.4067 14.0322 19.3649 13.1004 19.2954C12.5719 18.5162 12.0435 17.6815 11.5567 16.8328C11.0561 15.9701 10.611 15.1215 10.1938 14.2588C10.611 13.3962 11.0561 12.5475 11.5567 11.6849C12.0574 10.8084 12.5858 9.98754 13.1004 9.22232C14.0322 9.15276 15.0056 9.11102 16.007 9.11102C17.0083 9.11102 17.9817 9.15276 18.9135 9.22232C19.442 9.98754 19.9565 10.8084 20.4572 11.6849C20.9439 12.5336 21.4029 13.3962 21.8201 14.2588C21.4168 15.1075 20.9718 15.9562 20.4572 16.8328ZM22.5432 15.8867C22.9326 16.8188 23.2664 17.7232 23.5445 18.6136C22.6545 18.8084 21.6949 18.9893 20.6797 19.1145C21.0135 18.5997 21.3333 18.071 21.6532 17.5284C21.9731 16.9858 22.2651 16.4293 22.5432 15.8867ZM15.993 22.9823C15.3672 22.3006 14.7414 21.5493 14.1295 20.7423C14.7414 20.7701 15.3533 20.7841 15.993 20.7841C16.6328 20.7841 17.2447 20.7701 17.8566 20.7423C17.2447 21.5493 16.6189 22.2867 15.993 22.9823ZM11.3064 19.1145C10.2912 18.9893 9.33159 18.8223 8.44155 18.6136C8.71969 17.7232 9.05345 16.8188 9.44285 15.8867C9.72099 16.4293 10.013 16.9858 10.3329 17.5284C10.6528 18.071 10.9726 18.5997 11.3064 19.1145ZM9.44285 12.6171C9.05345 11.6849 8.71969 10.7806 8.44155 9.89015C9.33159 9.69537 10.2912 9.5145 11.3064 9.38928C10.9726 9.90406 10.6528 10.4328 10.3329 10.9754C10.013 11.518 9.72099 12.0606 9.44285 12.6171ZM15.993 5.52145C16.605 6.18928 17.2308 6.94058 17.8566 7.76145C17.2447 7.73363 16.6328 7.71971 15.993 7.71971C15.3533 7.71971 14.7414 7.73363 14.1295 7.76145C14.7553 6.94058 15.3672 6.18928 15.993 5.52145ZM21.6532 10.9893C21.3333 10.4467 21.0135 9.91797 20.6797 9.40319C21.6949 9.52841 22.6545 9.69536 23.5445 9.90406C23.2803 10.7806 22.9465 11.6849 22.5432 12.631C22.2651 12.0884 21.9591 11.5319 21.6532 10.9893ZM7.69057 6.84319C7.25945 4.13015 7.62103 2.22406 8.69187 1.61189C8.95611 1.45884 9.26206 1.38928 9.60973 1.38928C10.9587 1.38928 12.9196 2.50232 15.0335 4.54754C14.1156 5.53537 13.2116 6.66232 12.3355 7.90058C10.8196 8.03971 9.38722 8.26232 8.07996 8.56841C7.92699 7.98406 7.80183 7.39971 7.71838 6.8571L7.69057 6.84319ZM1.3907 14.2588C1.3907 12.8119 3.53238 11.2536 7.09257 10.238C7.49587 11.5319 8.02434 12.8815 8.65015 14.2588C8.02434 15.6223 7.49587 16.9719 7.09257 18.2797C3.54628 17.2641 1.3907 15.7197 1.3907 14.2588ZM13.7262 25.1528C11.5984 26.878 9.76271 27.518 8.69187 26.9058C7.62103 26.2936 7.25945 24.3736 7.69057 21.6745C7.77401 21.118 7.91308 20.5475 8.05215 19.9632C9.35941 20.2693 10.7918 20.4919 12.3077 20.631C13.1838 21.8554 14.0878 22.9962 15.0056 23.998C14.5745 24.4154 14.1434 24.8188 13.7123 25.1667L13.7262 25.1528ZM24.2955 21.6745C24.7266 24.3875 24.3651 26.2936 23.2942 26.9058C22.2234 27.518 20.3877 26.878 18.2599 25.1528C17.8288 24.8049 17.3977 24.4015 16.9665 23.9841C17.8983 22.9823 18.8023 21.8554 19.6645 20.631C21.1804 20.4919 22.6128 20.2693 23.92 19.9632C24.073 20.5475 24.1982 21.1319 24.2816 21.6745H24.2955ZM24.8935 18.2658C24.4902 16.9719 23.9618 15.6223 23.3359 14.2449C23.9757 12.8536 24.4902 11.5041 24.8935 10.2241C28.4537 11.2397 30.5954 12.7841 30.5954 14.2449C30.5954 15.7058 28.4537 17.2501 24.8935 18.2658Z" fill="#61DAFB"/>
</svg>
